<svg width="30" height="31" viewBox="0 0 30 31" fill="none" xmlns="http://www.w3.org/2000/svg">
<rect y="0.839844" width="30" height="30" rx="5" fill="white"/>
<g clip-path="url(#clip0_1_597)">
<path d="M15.0031 12.2462C13.0156 12.2462 11.4125 13.8493 11.4125 15.8368C11.4125 17.8243 13.0156 19.4274 15.0031 19.4274C16.9906 19.4274 18.5937 17.8243 18.5937 15.8368C18.5937 13.8493 16.9906 12.2462 15.0031 12.2462ZM15.0031 18.1712C13.7187 18.1712 12.6687 17.1243 12.6687 15.8368C12.6687 14.5493 13.7156 13.5024 15.0031 13.5024C16.2906 13.5024 17.3375 14.5493 17.3375 15.8368C17.3375 17.1243 16.2875 18.1712 15.0031 18.1712ZM19.5781 12.0993C19.5781 12.5649 19.2031 12.9368 18.7406 12.9368C18.275 12.9368 17.9031 12.5618 17.9031 12.0993C17.9031 11.6368 18.2781 11.2618 18.7406 11.2618C19.2031 11.2618 19.5781 11.6368 19.5781 12.0993ZM21.9562 12.9493C21.9031 11.8274 21.6469 10.8337 20.825 10.0149C20.0062 9.19619 19.0125 8.93994 17.8906 8.88369C16.7344 8.81807 13.2687 8.81807 12.1125 8.88369C10.9937 8.93682 9.99999 9.19307 9.17812 10.0118C8.35624 10.8306 8.10312 11.8243 8.04687 12.9462C7.98124 14.1024 7.98124 17.5681 8.04687 18.7243C8.09999 19.8462 8.35624 20.8399 9.17812 21.6587C9.99999 22.4774 10.9906 22.7337 12.1125 22.7899C13.2687 22.8556 16.7344 22.8556 17.8906 22.7899C19.0125 22.7368 20.0062 22.4806 20.825 21.6587C21.6437 20.8399 21.9 19.8462 21.9562 18.7243C22.0219 17.5681 22.0219 14.1056 21.9562 12.9493ZM20.4625 19.9649C20.2187 20.5774 19.7469 21.0493 19.1312 21.2962C18.2094 21.6618 16.0219 21.5774 15.0031 21.5774C13.9844 21.5774 11.7937 21.6587 10.875 21.2962C10.2625 21.0524 9.79062 20.5806 9.54374 19.9649C9.17812 19.0431 9.26249 16.8556 9.26249 15.8368C9.26249 14.8181 9.18124 12.6274 9.54374 11.7087C9.78749 11.0962 10.2594 10.6243 10.875 10.3774C11.7969 10.0118 13.9844 10.0962 15.0031 10.0962C16.0219 10.0962 18.2125 10.0149 19.1312 10.3774C19.7437 10.6212 20.2156 11.0931 20.4625 11.7087C20.8281 12.6306 20.7437 14.8181 20.7437 15.8368C20.7437 16.8556 20.8281 19.0462 20.4625 19.9649Z" fill="#25282B"/>
</g>
<defs>
<clipPath id="clip0_1_597">
<rect width="16" height="16" fill="white" transform="translate(7 7.83984)"/>
</clipPath>
</defs>
</svg>
