<svg width="30" height="31" viewBox="0 0 30 31" fill="none" xmlns="http://www.w3.org/2000/svg">
<rect y="0.839844" width="30" height="30" rx="5" fill="white"/>
<g clip-path="url(#clip0_1_593)">
<path d="M11.1337 21.84H8.23125V12.4931H11.1337V21.84ZM9.68094 11.2181C8.75281 11.2181 8 10.4494 8 9.52127C8 9.07546 8.1771 8.6479 8.49234 8.33267C8.80757 8.01743 9.23513 7.84033 9.68094 7.84033C10.1267 7.84033 10.5543 8.01743 10.8695 8.33267C11.1848 8.6479 11.3619 9.07546 11.3619 9.52127C11.3619 10.4494 10.6088 11.2181 9.68094 11.2181ZM21.9969 21.84H19.1006V17.29C19.1006 16.2056 19.0787 14.815 17.5916 14.815C16.0825 14.815 15.8513 15.9931 15.8513 17.2119V21.84H12.9519V12.4931H15.7356V13.7681H15.7762C16.1637 13.0338 17.1103 12.2588 18.5225 12.2588C21.46 12.2588 22 14.1931 22 16.7056V21.84H21.9969Z" fill="#25282B"/>
</g>
<defs>
<clipPath id="clip0_1_593">
<rect width="16" height="16" fill="white" transform="translate(7 7.83984)"/>
</clipPath>
</defs>
</svg>
