<svg width="96" height="95" viewBox="0 0 96 95" fill="none" xmlns="http://www.w3.org/2000/svg">
<rect x="0.5" width="95" height="95" rx="47.5" fill="#FBE8F0"/>
<g clip-path="url(#clip0_1_82)">
<path d="M69.9847 61.7567H26.0153C25.7336 61.7567 25.5 61.5231 25.5 61.2415V33.0735C25.5 31.6514 26.6542 30.4972 28.0763 30.4972H56.8145C57.0961 30.4972 57.3297 30.7308 57.3297 31.0124C57.3297 31.2941 57.0961 31.5277 56.8145 31.5277H28.0763C27.2244 31.5277 26.5305 32.2216 26.5305 33.0735V60.7262H69.4695V33.0735C69.4695 32.2216 68.7756 31.5277 67.9236 31.5277H64.5229C64.2412 31.5277 64.0076 31.2941 64.0076 31.0124C64.0076 30.7308 64.2412 30.4972 64.5229 30.4972H67.9236C69.3457 30.4972 70.5 31.6514 70.5 33.0735V61.2415C70.5 61.53 70.2664 61.7567 69.9847 61.7567Z" fill="#D91966"/>
<path d="M56.93 69.9991H39.0674C38.875 69.9991 38.7033 69.896 38.6139 69.7311C38.5247 69.5663 38.5315 69.3602 38.6346 69.2022L41.3483 65.08C41.4445 64.9358 41.6026 64.8464 41.7811 64.8464H54.2094C54.3811 64.8464 54.5461 64.9358 54.6422 65.08L57.3559 69.2022C57.459 69.3602 57.4659 69.5663 57.3766 69.7311C57.2942 69.896 57.1155 69.9991 56.93 69.9991ZM40.0223 68.9686H55.975L53.9415 65.877H42.0629L40.0223 68.9686Z" fill="#D91966"/>
<path d="M61.7419 69.9998H34.261C33.9793 69.9998 33.7457 69.7662 33.7457 69.4845C33.7457 69.2029 33.9793 68.9693 34.261 68.9693H61.7419C62.0236 68.9693 62.2572 69.2029 62.2572 69.4845C62.2572 69.7731 62.0236 69.9998 61.7419 69.9998Z" fill="#D91966"/>
<path d="M67.9236 65.8782H28.0763C26.6542 65.8782 25.5 64.7241 25.5 63.3018V61.2408C25.5 60.9591 25.7336 60.7255 26.0153 60.7255H69.9847C70.2664 60.7255 70.5 60.9591 70.5 61.2408V63.3018C70.5 64.7241 69.3457 65.8782 67.9236 65.8782ZM26.5305 61.7561V63.3018C26.5305 64.1538 27.2244 64.8477 28.0763 64.8477H67.9236C68.7756 64.8477 69.4695 64.1538 69.4695 63.3018V61.7561H26.5305Z" fill="#D91966"/>
<path d="M43.1922 49.3897C42.9655 49.3897 42.7663 49.2385 42.6976 49.0187C42.6288 48.7989 42.7181 48.5584 42.9173 48.4348C47.8433 45.2881 50.4472 41.6744 51.3403 40.2592C51.4228 40.1287 51.5601 40.0393 51.7181 40.0256C51.8761 40.0119 52.0273 40.06 52.1372 40.1699C52.7762 40.8019 53.3945 41.4271 53.6831 41.7295C53.7517 41.7981 53.793 41.8875 53.8136 41.9836C54.2189 44.1615 53.1747 46.1195 50.8731 47.4936C47.864 49.3073 43.3845 49.3897 43.1922 49.3897ZM51.8556 41.3516C50.8319 42.8561 48.6747 45.5905 45.0884 48.2012C46.6067 48.0088 48.7365 47.576 50.3372 46.6211C51.6563 45.8309 53.1335 44.45 52.8174 42.3271C52.5907 42.0936 52.2403 41.7432 51.8556 41.3516Z" fill="#D91966"/>
<path d="M43.1899 49.3888C43.1006 49.3888 43.0182 49.3681 42.9426 49.3269C42.7777 49.2376 42.6747 49.0591 42.6747 48.8735C42.6747 48.7773 42.7159 46.5376 43.3548 44.1536C44.5228 39.8392 46.9685 37.6888 50.0671 38.2659C50.17 38.2865 50.2663 38.3345 50.335 38.4101C50.5755 38.6506 50.912 38.9872 51.2899 39.3583L52.1281 40.1896C52.2999 40.3613 52.3273 40.6292 52.2036 40.8285C51.2761 42.2987 48.5693 46.0636 43.4647 49.3201C43.3823 49.3613 43.2861 49.3888 43.1899 49.3888ZM49.0983 39.2003C46.2197 39.2003 44.8937 42.4017 44.351 44.4216C43.9937 45.7338 43.8357 47.0254 43.7602 47.8773C47.793 45.1086 50.1151 42.1064 51.1044 40.6155L50.5616 40.0796C50.2456 39.7636 49.9503 39.4751 49.7235 39.2483C49.5105 39.214 49.2976 39.2003 49.0983 39.2003Z" fill="#D91966"/>
<path d="M56.0712 40.4025C55.9406 40.4025 55.8101 40.3544 55.707 40.2513L51.8116 36.3558C51.6261 36.1636 51.6124 35.8681 51.7841 35.662C55.1917 31.6017 61.636 24.807 66.5689 25.0063C66.8368 25.0131 67.0566 25.233 67.0635 25.5009C67.2421 30.4337 60.4612 36.878 56.4078 40.2857C56.3048 40.3681 56.188 40.4025 56.0712 40.4025ZM52.8696 35.9643L56.0986 39.1933C62.2063 34.0063 65.7719 29.2727 66.0192 26.0505C62.7971 26.291 58.0635 29.8567 52.8696 35.9643Z" fill="#D91966"/>
<path d="M53.3035 42.6082C53.1728 42.6082 53.0355 42.56 52.9393 42.457L49.6072 39.125C49.4286 38.9463 49.408 38.6578 49.5591 38.4586C49.566 38.4448 50.4316 37.2768 51.7851 35.6623C51.8812 35.5524 52.0118 35.4838 52.1561 35.4768C52.3004 35.4631 52.4378 35.525 52.5408 35.628L56.4363 39.5234C56.5393 39.6265 56.5943 39.7639 56.5874 39.9082C56.5805 40.0524 56.5119 40.1898 56.4019 40.2791C54.7874 41.6326 53.6195 42.4914 53.6057 42.5051C53.5164 42.5738 53.4064 42.6082 53.3035 42.6082ZM50.6515 38.7127L53.3515 41.4127C53.7431 41.1105 54.4439 40.5746 55.3095 39.8532L52.2111 36.7547C51.4965 37.6203 50.9538 38.3211 50.6515 38.7127Z" fill="#D91966"/>
<path d="M63.8013 57.6343C63.6227 57.6343 40.4425 57.6343 40.4425 57.6343C37.8868 57.6343 35.8052 55.5526 35.8052 52.9969C35.8052 50.4412 37.8868 48.3595 40.4425 48.3595H43.1906C43.4724 48.3595 43.7059 48.5931 43.7059 48.8748C43.7059 49.1564 43.4724 49.39 43.1906 49.39H40.4425C38.457 49.39 36.8357 51.0113 36.8357 52.9969C36.8357 54.9824 38.457 56.6037 40.4425 56.6037H60.1532C62.2418 56.6037 63.2861 56.6037 63.8013 56.6724V56.6037C65.0311 56.6037 66.0341 55.6007 66.0341 54.3709C66.0341 53.1412 65.0311 52.1381 63.8013 52.1381H58.3052C58.2983 52.1381 58.2845 52.1381 58.2777 52.1381C56.4915 52.1244 55.0418 50.6679 55.0418 48.8748C55.0418 47.0748 56.5052 45.6113 58.3052 45.6113H63.8013C65.0311 45.6113 66.0341 44.6084 66.0341 43.3785C66.0341 42.1488 65.0311 41.1457 63.8013 41.1457H60.3662C60.0845 41.1457 59.8509 40.9121 59.8509 40.6305C59.8509 40.3488 60.0845 40.1152 60.3662 40.1152H63.8013C65.6013 40.1152 67.0647 41.5785 67.0647 43.3785C67.0647 45.1785 65.6013 46.6419 63.8013 46.6419H58.3052C57.0753 46.6419 56.0724 47.6449 56.0724 48.8748C56.0724 50.1045 57.0753 51.1076 58.3052 51.1076C58.312 51.1076 58.3257 51.1076 58.3326 51.1076H63.8013C65.6013 51.1076 67.0647 52.5709 67.0647 54.3709C67.0647 56.1709 65.6013 57.6343 63.8013 57.6343Z" fill="#D91966"/>
<path d="M32.199 38.3964H29.4509C28.7913 38.3964 28.2486 37.8536 28.2486 37.1941V34.446C28.2486 33.7865 28.7913 33.2437 29.4509 33.2437H32.199C32.8585 33.2437 33.4013 33.7865 33.4013 34.446V37.1941C33.4013 37.8605 32.8585 38.3964 32.199 38.3964ZM29.4509 34.2743C29.3547 34.2743 29.2791 34.3498 29.2791 34.446V37.1941C29.2791 37.2903 29.3547 37.3659 29.4509 37.3659H32.199C32.2952 37.3659 32.3707 37.2903 32.3707 37.1941V34.446C32.3707 34.3498 32.2952 34.2743 32.199 34.2743H29.4509Z" fill="#D91966"/>
<path d="M32.199 45.2679H29.4509C28.7913 45.2679 28.2486 44.7251 28.2486 44.0656V41.3175C28.2486 40.658 28.7913 40.1152 29.4509 40.1152H32.199C32.8585 40.1152 33.4013 40.658 33.4013 41.3175V44.0656C33.4013 44.732 32.8585 45.2679 32.199 45.2679ZM29.4509 41.1457C29.3547 41.1457 29.2791 41.2213 29.2791 41.3175V44.0656C29.2791 44.1617 29.3547 44.2373 29.4509 44.2373H32.199C32.2952 44.2373 32.3707 44.1617 32.3707 44.0656V41.3175C32.3707 41.2213 32.2952 41.1457 32.199 41.1457H29.4509Z" fill="#D91966"/>
<path d="M32.199 52.1374H29.4509C28.7913 52.1374 28.2486 51.5946 28.2486 50.935V48.187C28.2486 47.5274 28.7913 46.9846 29.4509 46.9846H32.199C32.8585 46.9846 33.4013 47.5274 33.4013 48.187V50.935C33.4013 51.6014 32.8585 52.1374 32.199 52.1374ZM29.4509 48.0152C29.3547 48.0152 29.2791 48.0907 29.2791 48.187V50.935C29.2791 51.0312 29.3547 51.1068 29.4509 51.1068H32.199C32.2952 51.1068 32.3707 51.0312 32.3707 50.935V48.187C32.3707 48.0907 32.2952 48.0152 32.199 48.0152H29.4509Z" fill="#D91966"/>
<path d="M32.199 59.0068H29.4509C28.7913 59.0068 28.2486 58.464 28.2486 57.8045V55.0564C28.2486 54.3969 28.7913 53.8541 29.4509 53.8541H32.199C32.8585 53.8541 33.4013 54.3969 33.4013 55.0564V57.8045C33.4013 58.4709 32.8585 59.0068 32.199 59.0068ZM29.4509 54.8846C29.3547 54.8846 29.2791 54.9602 29.2791 55.0564V57.8045C29.2791 57.9006 29.3547 57.9762 29.4509 57.9762H32.199C32.2952 57.9762 32.3707 57.9006 32.3707 57.8045V55.0564C32.3707 54.9602 32.2952 54.8846 32.199 54.8846H29.4509Z" fill="#D91966"/>
<path d="M52.3825 28.7786C52.1007 28.7786 51.8671 28.545 51.8671 28.2634V25.5153C51.8671 25.2336 52.1007 25 52.3825 25C52.6641 25 52.8977 25.2336 52.8977 25.5153V28.2634C52.8977 28.545 52.6641 28.7786 52.3825 28.7786Z" fill="#D91966"/>
<path d="M53.7562 27.4048H51.0082C50.7265 27.4048 50.4929 27.1712 50.4929 26.8896C50.4929 26.6079 50.7265 26.3743 51.0082 26.3743H53.7562C54.038 26.3743 54.2716 26.6079 54.2716 26.8896C54.2716 27.1712 54.038 27.4048 53.7562 27.4048Z" fill="#D91966"/>
<path d="M37.3509 44.064H36.3204C36.0388 44.064 35.8052 43.8304 35.8052 43.5488C35.8052 43.2671 36.0388 43.0335 36.3204 43.0335H37.3509C37.6326 43.0335 37.8662 43.2671 37.8662 43.5488C37.8662 43.8304 37.6326 44.064 37.3509 44.064Z" fill="#D91966"/>
<path d="M40.7867 44.064H39.7562C39.4744 44.064 39.2408 43.8304 39.2408 43.5488C39.2408 43.2671 39.4744 43.0335 39.7562 43.0335H40.7867C41.0684 43.0335 41.3019 43.2671 41.3019 43.5488C41.3019 43.8304 41.0684 44.064 40.7867 44.064Z" fill="#D91966"/>
<path d="M38.5537 46.2972C38.272 46.2972 38.0385 46.0636 38.0385 45.7818V44.7513C38.0385 44.4696 38.272 44.2361 38.5537 44.2361C38.8354 44.2361 39.069 44.4696 39.069 44.7513V45.7818C39.069 46.0704 38.8354 46.2972 38.5537 46.2972Z" fill="#D91966"/>
<path d="M38.5537 42.8634C38.272 42.8634 38.0385 42.6298 38.0385 42.3481V41.3176C38.0385 41.036 38.272 40.8024 38.5537 40.8024C38.8354 40.8024 39.069 41.036 39.069 41.3176V42.3481C39.069 42.6367 38.8354 42.8634 38.5537 42.8634Z" fill="#D91966"/>
<path d="M41.4718 36.5075H40.4413C40.1597 36.5075 39.9261 36.2739 39.9261 35.9923C39.9261 35.7105 40.1597 35.4769 40.4413 35.4769H41.4718C41.7535 35.4769 41.9871 35.7105 41.9871 35.9923C41.9871 36.2808 41.7535 36.5075 41.4718 36.5075Z" fill="#D91966"/>
<path d="M44.9076 36.5075H43.8771C43.5953 36.5075 43.3618 36.2739 43.3618 35.9923C43.3618 35.7105 43.5953 35.4769 43.8771 35.4769H44.9076C45.1893 35.4769 45.4229 35.7105 45.4229 35.9923C45.4229 36.2808 45.1893 36.5075 44.9076 36.5075Z" fill="#D91966"/>
<path d="M42.6765 38.7405C42.3948 38.7405 42.1613 38.507 42.1613 38.2253V37.1947C42.1613 36.913 42.3948 36.6794 42.6765 36.6794C42.9583 36.6794 43.1918 36.913 43.1918 37.1947V38.2253C43.1918 38.5138 42.9583 38.7405 42.6765 38.7405Z" fill="#D91966"/>
<path d="M42.6765 35.3048C42.3948 35.3048 42.1613 35.0712 42.1613 34.7895V33.759C42.1613 33.4773 42.3948 33.2437 42.6765 33.2437C42.9583 33.2437 43.1918 33.4773 43.1918 33.759V34.7895C43.1918 35.0781 42.9583 35.3048 42.6765 35.3048Z" fill="#D91966"/>
</g>
<defs>
<clipPath id="clip0_1_82">
<rect width="45" height="45" fill="white" transform="translate(25.5 25)"/>
</clipPath>
</defs>
</svg>
