<svg width="96" height="95" viewBox="0 0 96 95" fill="none" xmlns="http://www.w3.org/2000/svg">
<rect x="0.5" width="95" height="95" rx="47.5" fill="#FBE8F0"/>
<g clip-path="url(#clip0_1_60)">
<path d="M63.1145 70H32.8855C28.8115 70 25.5 66.6885 25.5 62.6145V32.3855C25.5 28.3114 28.8115 25 32.8855 25H63.1145C67.1885 25 70.5 28.3114 70.5 32.3855V62.6145C70.5 66.6885 67.1885 70 63.1145 70ZM32.8855 26.0305C29.3817 26.0305 26.5305 28.8817 26.5305 32.3855V62.6145C26.5305 66.1183 29.3817 68.9695 32.8855 68.9695H63.1145C66.6183 68.9695 69.4695 66.1183 69.4695 62.6145V32.3855C69.4695 28.8817 66.6183 26.0305 63.1145 26.0305H32.8855Z" fill="#D91966"/>
<path d="M39.5291 61.7559H26.0153C25.7336 61.7559 25.5 61.5223 25.5 61.2406V37.8819C25.5 37.6002 25.7336 37.3666 26.0153 37.3666H39.5291C39.8107 37.3666 40.0443 37.6002 40.0443 37.8819C40.0443 38.1635 39.8107 38.3971 39.5291 38.3971H26.5305V60.7254H39.5291C39.8107 60.7254 40.0443 60.959 40.0443 61.2406C40.0443 61.5223 39.8107 61.7559 39.5291 61.7559Z" fill="#D91966"/>
<path d="M69.9851 61.7559H56.4713C56.1897 61.7559 55.9561 61.5223 55.9561 61.2406C55.9561 60.959 56.1897 60.7254 56.4713 60.7254H69.4698V38.3971H56.4713C56.1897 38.3971 55.9561 38.1635 55.9561 37.8819C55.9561 37.6002 56.1897 37.3666 56.4713 37.3666H69.9851C70.2668 37.3666 70.5004 37.6002 70.5004 37.8819V61.2406C70.5004 61.5223 70.2668 61.7559 69.9851 61.7559Z" fill="#D91966"/>
<path d="M65.1751 34.9624H58.3048C57.2606 34.9624 56.4155 34.1174 56.4155 33.0731V30.325C56.4155 29.2808 57.2606 28.4357 58.3048 28.4357H65.1751C66.2194 28.4357 67.0644 29.2808 67.0644 30.325V33.0731C67.0644 34.1105 66.2194 34.9624 65.1751 34.9624ZM58.3048 29.4663C57.8308 29.4663 57.446 29.851 57.446 30.325V33.0731C57.446 33.5472 57.8308 33.9319 58.3048 33.9319H65.1751C65.6491 33.9319 66.0339 33.5472 66.0339 33.0731V30.325C66.0339 29.851 65.6491 29.4663 65.1751 29.4663H58.3048Z" fill="#D91966"/>
<path d="M48.0013 64.5036C39.764 64.5036 33.0586 57.7982 33.0586 49.5608C33.0586 41.3233 39.764 34.618 48.0013 34.618C56.2388 34.618 62.9441 41.3233 62.9441 49.5608C62.9441 57.7982 56.2388 64.5036 48.0013 64.5036ZM48.0013 35.6485C40.3273 35.6485 34.0891 41.8868 34.0891 49.5608C34.0891 57.2348 40.3273 63.473 48.0013 63.473C55.6754 63.473 61.9136 57.2348 61.9136 49.5608C61.9136 41.8868 55.6685 35.6485 48.0013 35.6485Z" fill="#D91966"/>
<path d="M48.0001 60.3822C42.0367 60.3822 37.1794 55.5248 37.1794 49.5615C37.1794 43.5982 42.0367 38.7408 48.0001 38.7408C53.9634 38.7408 58.8207 43.5982 58.8207 49.5615C58.8207 55.5318 53.9634 60.3822 48.0001 60.3822ZM48.0001 39.7714C42.6001 39.7714 38.21 44.1615 38.21 49.5615C38.21 54.9615 42.6001 59.3516 48.0001 59.3516C53.4001 59.3516 57.7902 54.9615 57.7902 49.5615C57.7902 44.1615 53.4001 39.7714 48.0001 39.7714Z" fill="#D91966"/>
<path d="M32.1992 34.2755C30.7771 34.2755 29.6229 33.1213 29.6229 31.6992C29.6229 30.2771 30.7771 29.1229 32.1992 29.1229C33.6213 29.1229 34.7755 30.2771 34.7755 31.6992C34.7755 33.1213 33.6145 34.2755 32.1992 34.2755ZM32.1992 30.1534C31.3473 30.1534 30.6534 30.8473 30.6534 31.6992C30.6534 32.5511 31.3473 33.245 32.1992 33.245C33.0511 33.245 33.745 32.5511 33.745 31.6992C33.745 30.8473 33.0511 30.1534 32.1992 30.1534Z" fill="#D91966"/>
<path d="M54.8714 29.4663C55.1559 29.4663 55.3867 29.2356 55.3867 28.951C55.3867 28.6664 55.1559 28.4357 54.8714 28.4357C54.5868 28.4357 54.356 28.6664 54.356 28.951C54.356 29.2356 54.5868 29.4663 54.8714 29.4663Z" fill="#D91966"/>
<path d="M50.7479 56.2597C48.57 56.2597 46.7975 54.4872 46.7975 52.3093C46.7975 50.1315 48.57 48.3589 50.7479 48.3589C52.9258 48.3589 54.6983 50.1315 54.6983 52.3093C54.6983 54.4872 52.9258 56.2597 50.7479 56.2597ZM50.7479 49.3895C49.1402 49.3895 47.8281 50.7016 47.8281 52.3093C47.8281 53.9169 49.1402 55.2292 50.7479 55.2292C52.3555 55.2292 53.6678 53.9169 53.6678 52.3093C53.6678 50.7016 52.3555 49.3895 50.7479 49.3895Z" fill="#D91966"/>
<path d="M67.2355 56.946H64.4874C64.2057 56.946 63.9721 56.7125 63.9721 56.4308C63.9721 56.1491 64.2057 55.9155 64.4874 55.9155H67.2355C67.5171 55.9155 67.7507 56.1491 67.7507 56.4308C67.7507 56.7125 67.5171 56.946 67.2355 56.946Z" fill="#D91966"/>
<path d="M65.8617 58.3198C65.58 58.3198 65.3464 58.0862 65.3464 57.8046V55.0565C65.3464 54.7749 65.58 54.5413 65.8617 54.5413C66.1434 54.5413 66.377 54.7749 66.377 55.0565V57.8046C66.377 58.0862 66.1434 58.3198 65.8617 58.3198Z" fill="#D91966"/>
<path d="M56.8365 67.9464H50.8044C50.5228 67.9464 50.2892 67.7128 50.2892 67.4311C50.2892 67.1495 50.5228 66.9159 50.8044 66.9159H56.8365C57.1181 66.9159 57.3517 67.1495 57.3517 67.4311C57.3517 67.7128 57.1181 67.9464 56.8365 67.9464Z" fill="#D91966"/>
<path d="M61.1019 67.9464H59.5835C59.3019 67.9464 59.0683 67.7128 59.0683 67.4311C59.0683 67.1495 59.3019 66.9159 59.5835 66.9159H61.1019C61.3835 66.9159 61.6171 67.1495 61.6171 67.4311C61.6171 67.7128 61.3904 67.9464 61.1019 67.9464Z" fill="#D91966"/>
<path d="M46.737 43.8923H43.9889C43.7072 43.8923 43.4736 43.6587 43.4736 43.3771C43.4736 43.0953 43.7072 42.8617 43.9889 42.8617H46.737C47.0187 42.8617 47.2523 43.0953 47.2523 43.3771C47.2523 43.6587 47.0256 43.8923 46.737 43.8923Z" fill="#D91966"/>
<path d="M45.3632 45.2681C45.0816 45.2681 44.848 45.0345 44.848 44.7529V42.0048C44.848 41.723 45.0816 41.4894 45.3632 41.4894C45.6449 41.4894 45.8785 41.723 45.8785 42.0048V44.7529C45.8785 45.0345 45.6517 45.2681 45.3632 45.2681Z" fill="#D91966"/>
</g>
<defs>
<clipPath id="clip0_1_60">
<rect width="45" height="45" fill="white" transform="translate(25.5 25)"/>
</clipPath>
</defs>
</svg>
