<svg width="96" height="95" viewBox="0 0 96 95" fill="none" xmlns="http://www.w3.org/2000/svg">
<rect x="0.5" width="95" height="95" rx="47.5" fill="#FBE8F0"/>
<g clip-path="url(#clip0_1_21)">
<path d="M59.5898 49.3465C59.3143 49.3465 59.0859 49.1181 59.0859 48.8427V43.4687C59.0859 43.1932 59.3143 42.9648 59.5898 42.9648C59.8652 42.9648 60.0936 43.1932 60.0936 43.4687V48.8427C60.0936 49.1248 59.8652 49.3465 59.5898 49.3465Z" fill="#D91966"/>
<path d="M58.2493 69.5H32.7226C32.4471 69.5 32.2188 69.2716 32.2188 68.9962V26.0038C32.2188 25.7284 32.4471 25.5 32.7226 25.5H58.2493C59.2704 25.5 60.0966 26.3263 60.0966 27.3473V31.3779C60.0966 31.6533 59.8682 31.8817 59.5928 31.8817C59.3174 31.8817 59.089 31.6533 59.089 31.3779V27.3473C59.089 26.8838 58.7128 26.5076 58.2493 26.5076H33.2264V68.4924H58.2493C58.7128 68.4924 59.089 68.1162 59.089 67.6527V63.6221C59.089 63.3467 59.3174 63.1183 59.5928 63.1183C59.8682 63.1183 60.0966 63.3467 60.0966 63.6221V67.6527C60.0966 68.6737 59.2704 69.5 58.2493 69.5Z" fill="#D91966"/>
<path d="M32.7216 69.5H28.6911C27.67 69.5 26.8438 68.6737 26.8438 67.6527V27.3473C26.8438 26.3263 27.67 25.5 28.6911 25.5H32.7216C32.997 25.5 33.2254 25.7284 33.2254 26.0038V68.9962C33.2254 69.2783 32.997 69.5 32.7216 69.5ZM28.6911 26.5076C28.2276 26.5076 27.8514 26.8838 27.8514 27.3473V67.6527C27.8514 68.1162 28.2276 68.4924 28.6911 68.4924H32.2178V26.5076H28.6911Z" fill="#D91966"/>
<path d="M28.6908 66.8123H26.0038C25.7284 66.8123 25.5 66.5839 25.5 66.3085C25.5 66.0331 25.7284 65.8047 26.0038 65.8047H28.6908C28.9663 65.8047 29.1947 66.0331 29.1947 66.3085C29.1947 66.5906 28.9663 66.8123 28.6908 66.8123Z" fill="#D91966"/>
<path d="M28.6908 62.1111H26.0038C25.7284 62.1111 25.5 61.8828 25.5 61.6073C25.5 61.3319 25.7284 61.1035 26.0038 61.1035H28.6908C28.9663 61.1035 29.1947 61.3319 29.1947 61.6073C29.1947 61.8828 28.9663 62.1111 28.6908 62.1111Z" fill="#D91966"/>
<path d="M28.6908 57.408H26.0038C25.7284 57.408 25.5 57.1796 25.5 56.9042C25.5 56.6288 25.7284 56.4004 26.0038 56.4004H28.6908C28.9663 56.4004 29.1947 56.6288 29.1947 56.9042C29.1947 57.1796 28.9663 57.408 28.6908 57.408Z" fill="#D91966"/>
<path d="M28.6908 52.7069H26.0038C25.7284 52.7069 25.5 52.4785 25.5 52.203C25.5 51.9276 25.7284 51.6992 26.0038 51.6992H28.6908C28.9663 51.6992 29.1947 51.9276 29.1947 52.203C29.1947 52.4785 28.9663 52.7069 28.6908 52.7069Z" fill="#D91966"/>
<path d="M28.6908 48.0037H26.0038C25.7284 48.0037 25.5 47.7753 25.5 47.4999C25.5 47.2245 25.7284 46.9961 26.0038 46.9961H28.6908C28.9663 46.9961 29.1947 47.2245 29.1947 47.4999C29.1947 47.7753 28.9663 48.0037 28.6908 48.0037Z" fill="#D91966"/>
<path d="M28.6908 43.3006H26.0038C25.7284 43.3006 25.5 43.0722 25.5 42.7968C25.5 42.5214 25.7284 42.293 26.0038 42.293H28.6908C28.9663 42.293 29.1947 42.5214 29.1947 42.7968C29.1947 43.0722 28.9663 43.3006 28.6908 43.3006Z" fill="#D91966"/>
<path d="M28.6908 38.5994H26.0038C25.7284 38.5994 25.5 38.371 25.5 38.0956C25.5 37.8202 25.7284 37.5918 26.0038 37.5918H28.6908C28.9663 37.5918 29.1947 37.8202 29.1947 38.0956C29.1947 38.371 28.9663 38.5994 28.6908 38.5994Z" fill="#D91966"/>
<path d="M28.6908 33.8963H26.0038C25.7284 33.8963 25.5 33.6679 25.5 33.3925C25.5 33.1171 25.7284 32.8887 26.0038 32.8887H28.6908C28.9663 32.8887 29.1947 33.1171 29.1947 33.3925C29.1947 33.6679 28.9663 33.8963 28.6908 33.8963Z" fill="#D91966"/>
<path d="M28.6908 29.1951H26.0038C25.7284 29.1951 25.5 28.9667 25.5 28.6913C25.5 28.4159 25.7217 28.1875 26.0038 28.1875H28.6908C28.9663 28.1875 29.1947 28.4159 29.1947 28.6913C29.1947 28.9667 28.9663 29.1951 28.6908 29.1951Z" fill="#D91966"/>
<path d="M65.6383 61.4386H53.5467C52.9018 61.4386 52.3711 60.9079 52.3711 60.263V57.576C52.3711 56.9311 52.9018 56.4004 53.5467 56.4004H65.6383C66.2832 56.4004 66.8138 56.9311 66.8138 57.576V60.263C66.8138 60.9146 66.2832 61.4386 65.6383 61.4386ZM53.5467 57.408C53.4526 57.408 53.3787 57.4819 53.3787 57.576V60.263C53.3787 60.357 53.4526 60.4309 53.5467 60.4309H65.6383C65.7323 60.4309 65.8062 60.357 65.8062 60.263V57.576C65.8062 57.4819 65.7323 57.408 65.6383 57.408H53.5467Z" fill="#D91966"/>
<path d="M67.6551 64.1261H40.7848C39.7638 64.1261 38.9375 63.2998 38.9375 62.2788V50.1872C38.9375 49.1661 39.7638 48.3398 40.7848 48.3398H67.6551C68.6761 48.3398 69.5024 49.1661 69.5024 50.1872V62.2788C69.5024 63.2998 68.6761 64.1261 67.6551 64.1261ZM40.7848 49.3475C40.3213 49.3475 39.9451 49.7237 39.9451 50.1872V62.2788C39.9451 62.7423 40.3213 63.1185 40.7848 63.1185H67.6551C68.1186 63.1185 68.4948 62.7423 68.4948 62.2788V50.1872C68.4948 49.7237 68.1186 49.3475 67.6551 49.3475H40.7848Z" fill="#D91966"/>
<path d="M67.6528 43.9742H50.1872C49.1661 43.9742 48.3398 43.148 48.3398 42.1269V32.7223C48.3398 31.7013 49.1661 30.875 50.1872 30.875H67.6528C68.6739 30.875 69.5001 31.7013 69.5001 32.7223V42.1269C69.5001 43.148 68.6672 43.9742 67.6528 43.9742ZM50.1872 31.8826C49.7237 31.8826 49.3475 32.2588 49.3475 32.7223V42.1269C49.3475 42.5904 49.7237 42.9666 50.1872 42.9666H67.6528C68.1163 42.9666 68.4925 42.5904 68.4925 42.1269V32.7223C68.4925 32.2588 68.1163 31.8826 67.6528 31.8826H50.1872Z" fill="#D91966"/>
<path d="M62.9499 54.7205H58.6171C58.3417 54.7205 58.1133 54.4921 58.1133 54.2167C58.1133 53.9413 58.3417 53.7129 58.6171 53.7129H62.9499C63.2254 53.7129 63.4537 53.9413 63.4537 54.2167C63.4537 54.4988 63.2254 54.7205 62.9499 54.7205Z" fill="#D91966"/>
<path d="M55.9314 54.7205H52.8749C52.5995 54.7205 52.3711 54.4921 52.3711 54.2167C52.3711 53.9413 52.5995 53.7129 52.8749 53.7129H55.9314C56.2068 53.7129 56.4352 53.9413 56.4352 54.2167C56.4352 54.4988 56.2068 54.7205 55.9314 54.7205Z" fill="#D91966"/>
<path d="M66.3069 52.035H62.2226C61.9471 52.035 61.7188 51.8066 61.7188 51.5312C61.7188 51.2557 61.9471 51.0273 62.2226 51.0273H66.3069C66.5823 51.0273 66.8107 51.2557 66.8107 51.5312C66.8107 51.8133 66.5823 52.035 66.3069 52.035Z" fill="#D91966"/>
<path d="M59.5387 52.035H52.8749C52.5995 52.035 52.3711 51.8066 52.3711 51.5312C52.3711 51.2557 52.5995 51.0273 52.8749 51.0273H59.5387C59.8141 51.0273 60.0425 51.2557 60.0425 51.5312C60.0425 51.8133 59.8209 52.035 59.5387 52.035Z" fill="#D91966"/>
<path d="M63.3949 39.2713H60.2577C59.9823 39.2713 59.7539 39.0429 59.7539 38.7675C59.7539 38.4921 59.9823 38.2637 60.2577 38.2637H63.3949C63.6703 38.2637 63.8987 38.4921 63.8987 38.7675C63.8987 39.0429 63.677 39.2713 63.3949 39.2713Z" fill="#D91966"/>
<path d="M65.6357 36.5838H60.2616C59.9862 36.5838 59.7578 36.3554 59.7578 36.08C59.7578 35.8046 59.9862 35.5762 60.2616 35.5762H65.6357C65.9111 35.5762 66.1395 35.8046 66.1395 36.08C66.1395 36.3554 65.9111 36.5838 65.6357 36.5838Z" fill="#D91966"/>
<path d="M40.5548 39.9432H36.0741C35.7987 39.9432 35.5703 39.7148 35.5703 39.4394C35.5703 39.1639 35.7987 38.9355 36.0741 38.9355H40.5548C40.8302 38.9355 41.0586 39.1639 41.0586 39.4394C41.0586 39.7148 40.8369 39.9432 40.5548 39.9432Z" fill="#D91966"/>
<path d="M43.4713 37.2557H36.0819C35.8065 37.2557 35.5781 37.0273 35.5781 36.7519C35.5781 36.4764 35.8065 36.248 36.0819 36.248H43.4713C43.7467 36.248 43.9751 36.4764 43.9751 36.7519C43.9751 37.0273 43.7467 37.2557 43.4713 37.2557Z" fill="#D91966"/>
<path d="M45.7958 59.423C45.7084 59.423 45.6211 59.4028 45.5405 59.3558L43.2162 58.0123C43.0617 57.925 42.9609 57.757 42.9609 57.5756V54.8886C42.9609 54.7072 43.055 54.5393 43.2162 54.452L45.5405 53.1085C45.695 53.0211 45.8898 53.0211 46.0443 53.1085L48.3686 54.452C48.5231 54.5393 48.6238 54.7072 48.6238 54.8886V57.5756C48.6238 57.757 48.5298 57.925 48.3686 58.0123L46.0443 59.3558C45.9704 59.4028 45.8831 59.423 45.7958 59.423ZM43.9753 57.2868L45.7958 58.3414L47.6162 57.2868V55.1842L45.7958 54.1295L43.9753 55.1842V57.2868Z" fill="#D91966"/>
<path d="M54.5262 40.6144C54.4389 40.6144 54.3516 40.5942 54.271 40.5472L51.9467 39.2037C51.7922 39.1164 51.6914 38.9484 51.6914 38.767V36.08C51.6914 35.8986 51.7855 35.7307 51.9467 35.6434L54.271 34.2999C54.4255 34.2125 54.6203 34.2125 54.7748 34.2999L57.0991 35.6434C57.2536 35.7307 57.3543 35.8986 57.3543 36.08V38.767C57.3543 38.9484 57.2603 39.1164 57.0991 39.2037L54.7748 40.5472C54.7009 40.5942 54.6136 40.6144 54.5262 40.6144ZM52.7058 38.4782L54.5262 39.5328L56.3467 38.4782V36.3756L54.5262 35.3209L52.7058 36.3756V38.4782Z" fill="#D91966"/>
<path d="M38.4051 34.5675C38.3178 34.5675 38.2305 34.5473 38.1499 34.5003L35.8256 33.1568C35.6711 33.0695 35.5703 32.9015 35.5703 32.7202V30.0331C35.5703 29.8518 35.6644 29.6838 35.8256 29.5965L38.1499 28.253C38.3044 28.1657 38.4992 28.1657 38.6537 28.253L40.978 29.5965C41.1325 29.6838 41.2332 29.8518 41.2332 30.0331V32.7202C41.2332 32.9015 41.1392 33.0695 40.978 33.1568L38.6537 34.5003C38.5798 34.5473 38.4925 34.5675 38.4051 34.5675ZM36.5847 32.4313L38.4051 33.486L40.2256 32.4313V30.322L38.4051 29.2673L36.5847 30.322V32.4313Z" fill="#D91966"/>
<path d="M64.9643 68.1561H62.2773C62.0018 68.1561 61.7734 67.9277 61.7734 67.6523C61.7734 67.3768 62.0018 67.1484 62.2773 67.1484H64.9643C65.2397 67.1484 65.4681 67.3768 65.4681 67.6523C65.4681 67.9344 65.2397 68.1561 64.9643 68.1561Z" fill="#D91966"/>
<path d="M63.621 69.4993C63.3456 69.4993 63.1172 69.2709 63.1172 68.9955V66.3085C63.1172 66.0331 63.3456 65.8047 63.621 65.8047C63.8964 65.8047 64.1248 66.0331 64.1248 66.3085V68.9955C64.1248 69.2777 63.8964 69.4993 63.621 69.4993Z" fill="#D91966"/>
<path d="M66.9799 27.8514H64.2929C64.0175 27.8514 63.7891 27.623 63.7891 27.3476C63.7891 27.0721 64.0175 26.8438 64.2929 26.8438H66.9799C67.2553 26.8438 67.4837 27.0721 67.4837 27.3476C67.4837 27.623 67.2553 27.8514 66.9799 27.8514Z" fill="#D91966"/>
<path d="M65.6366 29.1947C65.3612 29.1947 65.1328 28.9663 65.1328 28.6908V26.0038C65.1328 25.7284 65.3612 25.5 65.6366 25.5C65.912 25.5 66.1404 25.7284 66.1404 26.0038V28.6908C66.1404 28.9663 65.912 29.1947 65.6366 29.1947Z" fill="#D91966"/>
<path d="M49.7026 46.66H43.8046C43.5292 46.66 43.3008 46.4316 43.3008 46.1562C43.3008 45.8807 43.5292 45.6523 43.8046 45.6523H49.7026C49.9781 45.6523 50.2064 45.8807 50.2064 46.1562C50.2064 46.4316 49.9848 46.66 49.7026 46.66Z" fill="#D91966"/>
<path d="M53.8829 46.66H52.3983C52.1229 46.66 51.8945 46.4316 51.8945 46.1562C51.8945 45.8807 52.1229 45.6523 52.3983 45.6523H53.8829C54.1583 45.6523 54.3867 45.8807 54.3867 46.1562C54.3867 46.4316 54.1583 46.66 53.8829 46.66Z" fill="#D91966"/>
</g>
<defs>
<clipPath id="clip0_1_21">
<rect width="45" height="44" fill="white" transform="translate(25.5 25.5)"/>
</clipPath>
</defs>
</svg>
