<svg width="16" height="17" viewBox="0 0 16 17" fill="none" xmlns="http://www.w3.org/2000/svg">
<g clip-path="url(#clip0_1_625)">
<path d="M11.7713 11.2143L8.94266 14.043C8.81895 14.1668 8.67206 14.2651 8.51037 14.3321C8.34867 14.3991 8.17536 14.4336 8.00033 14.4336C7.82529 14.4336 7.65198 14.3991 7.49029 14.3321C7.32859 14.2651 7.1817 14.1668 7.05799 14.043L4.22866 11.2143C3.48281 10.4684 2.97488 9.51814 2.76912 8.48358C2.56335 7.44902 2.66899 6.37668 3.07266 5.40216C3.47634 4.42763 4.15992 3.59469 5.03698 3.00867C5.91404 2.42265 6.94517 2.10986 7.99999 2.10986C9.05481 2.10986 10.0859 2.42265 10.963 3.00867C11.8401 3.59469 12.5236 4.42763 12.9273 5.40216C13.331 6.37668 13.4366 7.44902 13.2309 8.48358C13.0251 9.51814 12.5172 10.4684 11.7713 11.2143Z" stroke="white" stroke-width="1.33333" stroke-linecap="round" stroke-linejoin="round"/>
<path d="M10 7.44336C10 7.97379 9.78929 8.4825 9.41421 8.85757C9.03914 9.23265 8.53043 9.44336 8 9.44336C7.46957 9.44336 6.96086 9.23265 6.58579 8.85757C6.21071 8.4825 6 7.97379 6 7.44336C6 6.91293 6.21071 6.40422 6.58579 6.02915C6.96086 5.65407 7.46957 5.44336 8 5.44336C8.53043 5.44336 9.03914 5.65407 9.41421 6.02915C9.78929 6.40422 10 6.91293 10 7.44336Z" stroke="white" stroke-width="1.33333" stroke-linecap="round" stroke-linejoin="round"/>
</g>
<defs>
<clipPath id="clip0_1_625">
<rect width="16" height="16" fill="white" transform="translate(0 0.109863)"/>
</clipPath>
</defs>
</svg>
