<svg width="16" height="17" viewBox="0 0 16 17" fill="none" xmlns="http://www.w3.org/2000/svg">
<g clip-path="url(#clip0_1_367)">
<path fill-rule="evenodd" clip-rule="evenodd" d="M1 8.64004C1 8.50743 1.05268 8.38025 1.14645 8.28648C1.24021 8.19271 1.36739 8.14004 1.5 8.14004H13.293L10.146 4.99404C10.0521 4.90015 9.99937 4.77281 9.99937 4.64004C9.99937 4.50726 10.0521 4.37992 10.146 4.28604C10.2399 4.19215 10.3672 4.1394 10.5 4.1394C10.6328 4.1394 10.7601 4.19215 10.854 4.28604L14.854 8.28604C14.9006 8.33248 14.9375 8.38766 14.9627 8.4484C14.9879 8.50915 15.0009 8.57427 15.0009 8.64004C15.0009 8.7058 14.9879 8.77092 14.9627 8.83167C14.9375 8.89241 14.9006 8.94759 14.854 8.99404L10.854 12.994C10.7601 13.0879 10.6328 13.1407 10.5 13.1407C10.3672 13.1407 10.2399 13.0879 10.146 12.994C10.0521 12.9001 9.99937 12.7728 9.99937 12.64C9.99937 12.5073 10.0521 12.3799 10.146 12.286L13.293 9.14004H1.5C1.36739 9.14004 1.24021 9.08736 1.14645 8.99359C1.05268 8.89982 1 8.77264 1 8.64004Z" fill="#D91966"/>
</g>
<defs>
<clipPath id="clip0_1_367">
<rect width="16" height="16" fill="white" transform="translate(0 0.640137)"/>
</clipPath>
</defs>
</svg>
