<svg width="16" height="17" viewBox="0 0 16 17" fill="none" xmlns="http://www.w3.org/2000/svg">
<g clip-path="url(#clip0_1_637)">
<path d="M8.00001 1.44336C4.32001 1.44336 1.33334 4.43003 1.33334 8.11003C1.33334 11.79 4.32001 14.7767 8.00001 14.7767H11.3333V13.4434H8.00001C5.10668 13.4434 2.66668 11.0034 2.66668 8.11003C2.66668 5.21669 5.10668 2.77669 8.00001 2.77669C10.8933 2.77669 13.3333 5.21669 13.3333 8.11003V9.06336C13.3333 9.59003 12.86 10.11 12.3333 10.11C11.8067 10.11 11.3333 9.59003 11.3333 9.06336V8.11003C11.3333 6.27003 9.84001 4.77669 8.00001 4.77669C6.16001 4.77669 4.66668 6.27003 4.66668 8.11003C4.66668 9.95003 6.16001 11.4434 8.00001 11.4434C8.92001 11.4434 9.76001 11.07 10.36 10.4634C10.7933 11.0567 11.54 11.4434 12.3333 11.4434C13.6467 11.4434 14.6667 10.3767 14.6667 9.06336V8.11003C14.6667 4.43003 11.68 1.44336 8.00001 1.44336ZM8.00001 10.11C6.89334 10.11 6.00001 9.21669 6.00001 8.11003C6.00001 7.00336 6.89334 6.11003 8.00001 6.11003C9.10668 6.11003 10 7.00336 10 8.11003C10 9.21669 9.10668 10.11 8.00001 10.11Z" fill="white"/>
</g>
<defs>
<clipPath id="clip0_1_637">
<rect width="16" height="16" fill="white" transform="translate(0 0.109863)"/>
</clipPath>
</defs>
</svg>
