<svg width="16" height="17" viewBox="0 0 16 17" fill="none" xmlns="http://www.w3.org/2000/svg">
<g clip-path="url(#clip0_1_631)">
<path d="M11 1.10986C11.2652 1.10986 11.5196 1.21522 11.7071 1.40276C11.8946 1.59029 12 1.84465 12 2.10986V14.1099C12 14.3751 11.8946 14.6294 11.7071 14.817C11.5196 15.0045 11.2652 15.1099 11 15.1099H5C4.73478 15.1099 4.48043 15.0045 4.29289 14.817C4.10536 14.6294 4 14.3751 4 14.1099V2.10986C4 1.84465 4.10536 1.59029 4.29289 1.40276C4.48043 1.21522 4.73478 1.10986 5 1.10986H11ZM5 0.109863C4.46957 0.109863 3.96086 0.320577 3.58579 0.69565C3.21071 1.07072 3 1.57943 3 2.10986V14.1099C3 14.6403 3.21071 15.149 3.58579 15.5241C3.96086 15.8991 4.46957 16.1099 5 16.1099H11C11.5304 16.1099 12.0391 15.8991 12.4142 15.5241C12.7893 15.149 13 14.6403 13 14.1099V2.10986C13 1.57943 12.7893 1.07072 12.4142 0.69565C12.0391 0.320577 11.5304 0.109863 11 0.109863L5 0.109863Z" fill="white"/>
<path d="M8 14.1099C8.26522 14.1099 8.51957 14.0045 8.70711 13.817C8.89464 13.6294 9 13.3751 9 13.1099C9 12.8446 8.89464 12.5903 8.70711 12.4028C8.51957 12.2152 8.26522 12.1099 8 12.1099C7.73478 12.1099 7.48043 12.2152 7.29289 12.4028C7.10536 12.5903 7 12.8446 7 13.1099C7 13.3751 7.10536 13.6294 7.29289 13.817C7.48043 14.0045 7.73478 14.1099 8 14.1099Z" fill="white"/>
</g>
<defs>
<clipPath id="clip0_1_631">
<rect width="16" height="16" fill="white" transform="translate(0 0.109863)"/>
</clipPath>
</defs>
</svg>
