<svg width="16" height="17" viewBox="0 0 16 17" fill="none" xmlns="http://www.w3.org/2000/svg">
<g clip-path="url(#clip0_1_267)">
<path fill-rule="evenodd" clip-rule="evenodd" d="M1 8.39004C1 8.25743 1.05268 8.13025 1.14645 8.03648C1.24021 7.94271 1.36739 7.89004 1.5 7.89004H13.293L10.146 4.74404C10.0521 4.65015 9.99937 4.52281 9.99937 4.39004C9.99937 4.25726 10.0521 4.12992 10.146 4.03604C10.2399 3.94215 10.3672 3.8894 10.5 3.8894C10.6328 3.8894 10.7601 3.94215 10.854 4.03604L14.854 8.03604C14.9006 8.08248 14.9375 8.13766 14.9627 8.1984C14.9879 8.25915 15.0009 8.32427 15.0009 8.39004C15.0009 8.4558 14.9879 8.52092 14.9627 8.58167C14.9375 8.64241 14.9006 8.69759 14.854 8.74404L10.854 12.744C10.7601 12.8379 10.6328 12.8907 10.5 12.8907C10.3672 12.8907 10.2399 12.8379 10.146 12.744C10.0521 12.6501 9.99937 12.5228 9.99937 12.39C9.99937 12.2573 10.0521 12.1299 10.146 12.036L13.293 8.89004H1.5C1.36739 8.89004 1.24021 8.83736 1.14645 8.74359C1.05268 8.64982 1 8.52264 1 8.39004Z" fill="#D91966"/>
</g>
<defs>
<clipPath id="clip0_1_267">
<rect width="16" height="16" fill="white" transform="translate(0 0.390015)"/>
</clipPath>
</defs>
</svg>
