<svg width="20" height="21" viewBox="0 0 20 21" fill="none" xmlns="http://www.w3.org/2000/svg">
<g clip-path="url(#clip0_1_429)">
<path fill-rule="evenodd" clip-rule="evenodd" d="M1.25 10.41C1.25 10.2442 1.31585 10.0852 1.43306 9.96803C1.55027 9.85082 1.70924 9.78497 1.875 9.78497H16.6163L12.6825 5.85247C12.5651 5.73511 12.4992 5.57594 12.4992 5.40997C12.4992 5.244 12.5651 5.08483 12.6825 4.96747C12.7999 4.85011 12.959 4.78418 13.125 4.78418C13.291 4.78418 13.4501 4.85011 13.5675 4.96747L18.5675 9.96747C18.6257 10.0255 18.6719 10.0945 18.7034 10.1704C18.7349 10.2464 18.7511 10.3278 18.7511 10.41C18.7511 10.4922 18.7349 10.5736 18.7034 10.6495C18.6719 10.7254 18.6257 10.7944 18.5675 10.8525L13.5675 15.8525C13.4501 15.9698 13.291 16.0358 13.125 16.0358C12.959 16.0358 12.7999 15.9698 12.6825 15.8525C12.5651 15.7351 12.4992 15.5759 12.4992 15.41C12.4992 15.244 12.5651 15.0848 12.6825 14.9675L16.6163 11.035H1.875C1.70924 11.035 1.55027 10.9691 1.43306 10.8519C1.31585 10.7347 1.25 10.5757 1.25 10.41Z" fill="#25282B"/>
</g>
<defs>
<clipPath id="clip0_1_429">
<rect width="20" height="20" fill="white" transform="translate(0 0.410156)"/>
</clipPath>
</defs>
</svg>
