<svg width="20" height="21" viewBox="0 0 20 21" fill="none" xmlns="http://www.w3.org/2000/svg">
<g clip-path="url(#clip0_1_397)">
<path fill-rule="evenodd" clip-rule="evenodd" d="M18.75 10.41C18.75 10.2442 18.6841 10.0852 18.5669 9.96803C18.4497 9.85082 18.2907 9.78497 18.125 9.78497H3.38374L7.31749 5.85247C7.3756 5.79436 7.42169 5.72537 7.45314 5.64945C7.48459 5.57352 7.50078 5.49215 7.50078 5.40997C7.50078 5.32779 7.48459 5.24641 7.45314 5.17049C7.42169 5.09457 7.3756 5.02558 7.31749 4.96747C7.25938 4.90936 7.19039 4.86326 7.11447 4.83182C7.03854 4.80037 6.95717 4.78418 6.87499 4.78418C6.79281 4.78418 6.71143 4.80037 6.63551 4.83182C6.55958 4.86326 6.4906 4.90936 6.43249 4.96747L1.43249 9.96747C1.37428 10.0255 1.32811 10.0945 1.2966 10.1704C1.26509 10.2464 1.24887 10.3278 1.24887 10.41C1.24887 10.4922 1.26509 10.5736 1.2966 10.6495C1.32811 10.7254 1.37428 10.7944 1.43249 10.8525L6.43249 15.8525C6.4906 15.9106 6.55958 15.9567 6.63551 15.9881C6.71143 16.0196 6.79281 16.0358 6.87499 16.0358C6.95717 16.0358 7.03854 16.0196 7.11447 15.9881C7.19039 15.9567 7.25938 15.9106 7.31749 15.8525C7.3756 15.7944 7.42169 15.7254 7.45314 15.6494C7.48459 15.5735 7.50078 15.4921 7.50078 15.41C7.50078 15.3278 7.48459 15.2464 7.45314 15.1705C7.42169 15.0946 7.3756 15.0256 7.31749 14.9675L3.38374 11.035H18.125C18.2907 11.035 18.4497 10.9691 18.5669 10.8519C18.6841 10.7347 18.75 10.5757 18.75 10.41Z" fill="#25282B"/>
</g>
<defs>
<clipPath id="clip0_1_397">
<rect width="20" height="20" fill="white" transform="translate(0 0.410156)"/>
</clipPath>
</defs>
</svg>
